<svg xmlns="http://www.w3.org/2000/svg" width="1920" height="1080" viewBox="0 0 1920 1080"><defs><linearGradient id="bgg" x1="0" y1="0" x2="0.4" y2="1"><stop offset="0" stop-color="#0E2236"/><stop offset="1" stop-color="#0A1726"/></linearGradient><linearGradient id="bar" x1="0" y1="0" x2="1" y2="0"><stop offset="0" stop-color="#92c73e"/><stop offset="0.5" stop-color="#0086ca"/><stop offset="1" stop-color="#865da7"/></linearGradient></defs><rect width="1920" height="1080" fill="url(#bgg)"/><rect x="0" y="1066" width="1920" height="14" fill="url(#bar)"/><g transform="translate(77.5,47.5) scale(0.85)"><path d="M50,4 C66,24 66,54 58,74 L42,74 C34,54 34,24 50,4 Z" fill="#ffffff"/><path d="M44,60 L27,82 L44,74 Z" fill="#92c73e"/><path d="M56,60 L73,82 L56,74 Z" fill="#92c73e"/><circle cx="50" cy="37" r="8.5" fill="#44ace0"/><circle cx="50" cy="37" r="8.5" fill="none" stroke="#ffffff" stroke-width="2"/><path d="M45,75 L50,93 L55,75 Z" fill="#e6a315"/></g><text x="170" y="102" font-family="Arial, 'Liberation Sans', 'DejaVu Sans', sans-serif" font-size="40" fill="#ffffff" font-weight="bold" font-style="normal" text-anchor="start" opacity="1">LaunchPad</text><text x="1860" y="1040" font-family="Arial, 'Liberation Sans', 'DejaVu Sans', sans-serif" font-size="24" fill="#9fb3c4" font-weight="normal" font-style="normal" text-anchor="end" opacity="1">© 2026 Packaged Agile, LLC</text><text x="960.0" y="225" font-family="Arial, 'Liberation Sans', 'DejaVu Sans', sans-serif" font-size="64" fill="#ffffff" font-weight="bold" font-style="normal" text-anchor="middle" opacity="1">And the policy questions go unanswered</text><text x="960.0" y="282" font-family="Arial, 'Liberation Sans', 'DejaVu Sans', sans-serif" font-size="32" fill="#44ace0" font-weight="normal" font-style="normal" text-anchor="middle" opacity="1">Required under OMB's 2025 AI guidance (M-25-21)</text><rect x="430" y="340" width="52" height="52" rx="8" fill="none" stroke="#9fb3c4" stroke-width="4"/><text x="520" y="380" font-family="Arial, 'Liberation Sans', 'DejaVu Sans', sans-serif" font-size="44" fill="#ffffff" font-weight="normal" font-style="normal" text-anchor="start" opacity="1">Does it use personal data?</text><rect x="430" y="460" width="52" height="52" rx="8" fill="none" stroke="#9fb3c4" stroke-width="4"/><text x="520" y="500" font-family="Arial, 'Liberation Sans', 'DejaVu Sans', sans-serif" font-size="44" fill="#ffffff" font-weight="normal" font-style="normal" text-anchor="start" opacity="1">Does it make decisions about people?</text><rect x="430" y="580" width="52" height="52" rx="8" fill="none" stroke="#9fb3c4" stroke-width="4"/><text x="520" y="620" font-family="Arial, 'Liberation Sans', 'DejaVu Sans', sans-serif" font-size="44" fill="#ffffff" font-weight="normal" font-style="normal" text-anchor="start" opacity="1">Where does the model come from?</text><rect x="430" y="700" width="52" height="52" rx="8" fill="none" stroke="#9fb3c4" stroke-width="4"/><text x="520" y="740" font-family="Arial, 'Liberation Sans', 'DejaVu Sans', sans-serif" font-size="44" fill="#ffffff" font-weight="normal" font-style="normal" text-anchor="start" opacity="1">Is a human in the loop?</text><g transform="rotate(-12 1480 760)"><rect x="1180" y="710" width="600" height="100" rx="10" fill="none" stroke="#e3342f" stroke-width="6"/><text x="1480" y="778" font-family="Arial, 'Liberation Sans', 'DejaVu Sans', sans-serif" font-size="42" fill="#e3342f" font-weight="bold" font-style="normal" text-anchor="middle" opacity="1">ADDED LATE — IF AT ALL</text></g></svg>