<svg xmlns="http://www.w3.org/2000/svg" width="1920" height="1080" viewBox="0 0 1920 1080"><defs><linearGradient id="bgg" x1="0" y1="0" x2="0.4" y2="1"><stop offset="0" stop-color="#0E2236"/><stop offset="1" stop-color="#0A1726"/></linearGradient><linearGradient id="bar" x1="0" y1="0" x2="1" y2="0"><stop offset="0" stop-color="#92c73e"/><stop offset="0.5" stop-color="#0086ca"/><stop offset="1" stop-color="#865da7"/></linearGradient></defs><rect width="1920" height="1080" fill="url(#bgg)"/><rect x="0" y="1066" width="1920" height="14" fill="url(#bar)"/><g transform="translate(850.0,210.0) scale(2.2)"><path d="M50,4 C66,24 66,54 58,74 L42,74 C34,54 34,24 50,4 Z" fill="#ffffff"/><path d="M44,60 L27,82 L44,74 Z" fill="#92c73e"/><path d="M56,60 L73,82 L56,74 Z" fill="#92c73e"/><circle cx="50" cy="37" r="8.5" fill="#44ace0"/><circle cx="50" cy="37" r="8.5" fill="none" stroke="#ffffff" stroke-width="2"/><path d="M45,75 L50,93 L55,75 Z" fill="#e6a315"/></g><text x="960.0" y="540" font-family="Arial, 'Liberation Sans', 'DejaVu Sans', sans-serif" font-size="130" fill="#ffffff" font-weight="bold" font-style="normal" text-anchor="middle" opacity="1">LaunchPad</text><text x="960.0" y="615" font-family="Arial, 'Liberation Sans', 'DejaVu Sans', sans-serif" font-size="50" fill="#92c73e" font-weight="normal" font-style="italic" text-anchor="middle" opacity="1">Results Delivered</text><rect x="660.0" y="680" width="600" height="3" fill="url(#bar)"/><text x="960.0" y="770" font-family="Arial, 'Liberation Sans', 'DejaVu Sans', sans-serif" font-size="38" fill="#ffffff" font-weight="normal" font-style="normal" text-anchor="middle" opacity="1">info@packagedagile.com    ·    www.packagedagile.com    ·    (202) 871-0075</text><text x="960.0" y="845" font-family="Arial, 'Liberation Sans', 'DejaVu Sans', sans-serif" font-size="30" fill="#9fb3c4" font-weight="normal" font-style="normal" text-anchor="middle" opacity="1">HUBZone-certified small business  ·  GSA MAS Contract #47QTCA22D008Z</text><text x="1860" y="1040" font-family="Arial, 'Liberation Sans', 'DejaVu Sans', sans-serif" font-size="24" fill="#9fb3c4" font-weight="normal" font-style="normal" text-anchor="end" opacity="1">© 2026 Packaged Agile, LLC</text></svg>